<svg xmlns="http://www.w3.org/2000/svg" width="430" height="430" style="width:100%;height:100%;transform:translate3d(0,0,0);content-visibility:visible" viewBox="0 0 430 430"><defs><clipPath id="c"><path d="M0 0h430v430H0z"/></clipPath><clipPath id="d"><path d="M0 0h430v430H0z"/></clipPath><clipPath id="b"><path d="M0 0h430v430H0z"/></clipPath><filter id="f" width="300%" height="300%" x="-100%" y="-100%"><feGaussianBlur result="filter_result_0" stdDeviation="52.5 52.5"/></filter><mask id="e" mask-type="alpha"><use xmlns:ns1="http://www.w3.org/1999/xlink" ns1:href="#a"/></mask><g id="a" clip-path="url(#b)" style="display:block"><g style="display:block"><path fill-opacity="0" stroke="#121331" stroke-linecap="round" stroke-linejoin="round" stroke-width="18.9" d="M327.014 377.089H103.682c-12.021 0-21.767-9.745-21.767-21.766V215.331h266.866v139.992c0 12.021-9.746 21.766-21.767 21.766zM81.915 269.343h266.866m-242.099-.479 18.263-53.054m31.774 53.054 18.263-53.054m31.774 53.054 18.264-53.054m31.773 53.054 18.264-53.054m31.774 53.054 18.263-53.054" class="primary"/><path fill-opacity="0" stroke="#08A88A" stroke-linecap="round" stroke-linejoin="round" stroke-width="9" d="M202.005 299.568v53.373l39.68-26.686-39.68-26.687z" class="secondary"/><path fill="red" d="M202.005 299.568v53.373l39.68-26.686-39.68-26.687z"/></g><path fill-opacity="0" stroke="#08A88A" stroke-linecap="round" stroke-linejoin="round" stroke-width="18.9" d="M319.367 93.56 81.903 215.331l-14.276-27.84c-5.485-10.697-1.261-23.815 9.436-29.3L275.79 56.283c10.697-5.485 23.815-1.26 29.3 9.437l14.277 27.84zM79.732 156.822l40.46 38.875m4.065-61.707 40.46 38.874m4.064-61.706 40.46 38.874m4.065-61.707 40.459 38.875m4.065-61.707 40.46 38.875" class="secondary" style="display:block"/></g></defs><g clip-path="url(#c)"><g clip-path="url(#d)" mask="url(#e)" style="display:block"><g filter="url(#f)" transform="rotate(-94.09 238.599 -16.364) scale(2.4)"><g class="design"><path fill="#4AE0EB" d="M0-250c137.975 0 250 112.025 250 250S137.975 250 0 250-250 137.975-250 0-137.975-250 0-250z" class="primary"/></g><g class="design"><path fill="#CA5EED" d="M113.242-295.384c97.478 0 176.5 79.022 176.5 176.5s-79.022 176.5-176.5 176.5c-43.948 0-74.396-34.057-105.29-60.631-37.631-32.369-71.21-62.338-71.21-115.869 0-97.478 79.022-176.5 176.5-176.5z" class="secondary"/></g></g></g></g></svg>